<svg xmlns="http://www.w3.org/2000/svg"
 xmlns:xlink="http://www.w3.org/1999/xlink"
 width="20px" height="17px"  viewBox="0 0 20 17">
<path fill-rule="evenodd"  fill="#ffffff"
 d="M18.725952,4.6628838 C18.725952,4.6628838 18.727295,4.6634827 18.727295,4.6634827 C18.727295,4.6634827 16.25232,10.1632 16.25232,10.1632 C16.25232,10.1632 16.252197,10.1632 16.252197,10.1632 C16.130127,10.434402 15.866089,10.6275215 15.55481,10.647789 C15.55481,10.647789 15.55481,10.647789 15.55481,10.647789 C15.55481,10.647789 8.427246,11.122837 8.427246,11.122837 C8.427246,11.122837 8.838989,12.299431 8.838989,12.299431 C8.838989,12.299431 16.599976,12.299431 16.599976,12.299431 C17.51123,12.299431 18.249878,13.038528 18.249878,13.9498825 C18.249878,14.86124 17.51123,15.599739 16.599976,15.599739 C15.688721,15.599739 14.949951,14.86124 14.949951,13.9498825 C14.949951,13.9498825 7.25,13.9498825 7.25,13.9498825 C7.25,14.86124 6.5112305,15.599739 5.5999756,15.599739 C4.6887207,15.599739 3.9499512,14.86124 3.9499512,13.9498825 C3.9499512,13.038528 4.6887207,12.299431 5.5999756,12.299431 C5.5999756,12.299431 7.0909424,12.299431 7.0909424,12.299431 C7.0909424,12.299431 3.9146729,3.2246246 3.9146729,3.2246246 C3.9146729,3.2246246 2.0249023,3.2246246 2.0249023,3.2246246 C1.5693359,3.2246246 1.1999512,2.8550758 1.1999512,2.3996964 C1.1999512,1.9443169 1.5693359,1.5747681 2.0249023,1.5747681 C2.0249023,1.5747681 4.5,1.5747681 4.5,1.5747681 C4.8598633,1.5747681 5.162964,1.8066292 5.2755127,2.1284943 C5.2755127,2.1284943 5.2785645,2.127304 5.2785645,2.127304 C5.2785645,2.127304 5.759033,3.5 5.759033,3.5 C5.759033,3.5 17.974976,3.5 17.974976,3.5 C18.430664,3.5 18.799927,3.86895 18.799927,4.3249283 C18.799927,4.4453278 18.772583,4.5591736 18.725952,4.6628838 ZM6.336548,5.1498566 C6.336548,5.1498566 7.8616943,9.506954 7.8616943,9.506954 C7.8616943,9.506954 14.950928,9.03429 14.950928,9.03429 C14.950928,9.03429 16.698975,5.1498566 16.698975,5.1498566 C16.698975,5.1498566 6.336548,5.1498566 6.336548,5.1498566 Z"/>
</svg>