<svg xmlns="http://www.w3.org/2000/svg"
 xmlns:xlink="http://www.w3.org/1999/xlink"
 width="20px" height="20px"  viewBox="0 0 20 20">
<path fill-rule="evenodd"  fill="#ffffff"
 d="M18.316772,15.982834 C18.615356,16.281452 18.799927,16.693916 18.799927,17.14989 C18.799927,18.061249 18.061157,18.799747 17.150024,18.799747 C16.694336,18.799747 16.281738,18.614975 15.983154,18.316353 C15.983154,18.316353 15.983154,18.316353 15.983154,18.316353 C15.983154,18.316353 11.147461,13.480629 11.147461,13.480629 C10.165161,14.06118 9.0234375,14.3997345 7.7999268,14.3997345 C4.154907,14.3997345 1.1999512,11.445129 1.1999512,7.799713 C1.1999512,4.154888 4.154907,1.199688 7.7999268,1.199688 C11.445068,1.199688 14.399902,4.154888 14.399902,7.799713 C14.399902,9.023396 14.061157,10.164825 13.480957,11.14711 C13.480957,11.14711 18.316772,15.982834 18.316772,15.982834 C18.316772,15.982834 18.316772,15.982834 18.316772,15.982834 ZM7.7999268,2.8495445 C5.066162,2.8495445 2.8499756,5.065647 2.8499756,7.799713 C2.8499756,10.533775 5.066162,12.749878 7.7999268,12.749878 C10.533691,12.749878 12.749878,10.533775 12.749878,7.799713 C12.749878,5.065647 10.533691,2.8495445 7.7999268,2.8495445 Z"/>
</svg>