<svg
	xmlns:mydata="http://www.w3.org/2000/svg"
	mydata:contrastcolor="63666A"
	mydata:template="SingleColorHex1"
	mydata:presentation="2.5"
	mydata:layouttype="undefined"
	mydata:specialfontid="undefined"
	mydata:id1="202"
	mydata:id2="307"
	mydata:companyname="ТД Арена"
	mydata:companytagline="Все для победы!"
	version="1.1"
	xmlns="http://www.w3.org/2000/svg"
	xmlns:xlink="http://www.w3.org/1999/xlink"
	viewBox="0 0 550 470"
>
	<g
		fill="none"
		fill-rule="none"
		stroke="none"
		stroke-width="1"
		stroke-linecap="butt"
		stroke-linejoin="miter"
		stroke-miterlimit="10"
		stroke-dasharray=""
		stroke-dashoffset="0"
		font-family="none"
		font-weight="none"
		font-size="none"
		text-anchor="none"
		style="mix-blend-mode: normal"
	>
		<g data-paper-data='{"isGlobalGroup":true}'>
			<g
				data-paper-data='{"isSecondaryText":true}'
				fill="#651d32"
				fill-rule="nonzero"
			>
				<path
					d="M186.80537,276.25708c1.46644,-0.59317 1.92779,-1.25224 1.92779,-2.12551c0,-1.08747 -0.7085,-2.43857 -4.00387,-2.43857c-1.00509,0 -2.24085,0.06591 -3.67434,0v0.41192c0.88975,0.09886 1.12043,0.44487 1.12043,0.9227v7.87593c0,0.41192 -0.28011,0.52726 -1.15338,0.59317v0.4284h4.56409c2.78459,0 4.30046,-1.12043 4.30046,-2.9164c0,-1.46644 -1.16986,-2.52096 -3.08117,-2.75163zM183.7242,272.20378c0.29658,-0.01648 0.54374,-0.01648 1.15338,-0.01648c1.63121,0 2.25733,0.9227 2.25733,1.94427c0,1.41701 -0.75794,1.9937 -3.41071,2.35619zM185.48722,281.41434h-0.80737c-0.90623,0 -0.95566,-0.08238 -0.95566,-0.49431v-3.9874l2.04313,-0.32954c1.53235,0 2.45505,1.1369 2.45505,2.47153c0,1.49939 -0.80737,2.33971 -2.73516,2.33971z"
					data-paper-data='{"glyphName":"В","glyphIndex":0,"firstGlyphOfWord":true,"word":1}'
				></path>
				<path
					d="M203.18435,279.15701c-0.52726,1.64769 -1.5653,2.4221 -3.1306,2.4221c-1.94427,0 -3.26242,-2.15847 -3.26242,-5.28907c0,-3.32832 1.40053,-4.38284 2.6363,-4.38284c1.7795,0 2.75163,0.97213 3.42718,2.60334h0.75794c-0.44487,-1.00509 -0.67555,-1.86188 -0.8568,-2.80106c-0.23068,0.03295 -0.32954,0.03295 -0.49431,0.03295c-1.00509,0 -1.31815,-0.31306 -2.53743,-0.31306c-2.73516,0 -4.61352,2.29028 -4.61352,5.32202c0,3.04822 1.97722,5.38793 4.77829,5.38793c2.43857,0 3.47662,-1.53235 3.85558,-2.98231z"
					data-paper-data='{"glyphName":"С","glyphIndex":1,"word":1}'
				></path>
				<path
					d="M215.71792,279.37121l-0.52726,1.05452c-0.32954,0.67555 -0.84032,0.97213 -1.81245,0.97213h-1.86188c-0.08238,0 -0.14829,-0.04943 -0.14829,-0.13181v-4.30046h2.15847c0.82384,0 0.97213,0.4284 1.12043,1.08747h0.41192c-0.08238,-0.88975 -0.08238,-1.7795 0,-2.66925h-0.41192c-0.14829,0.6426 -0.29658,1.08747 -1.12043,1.08747h-2.15847v-4.13569c0,-0.08238 0.06591,-0.14829 0.14829,-0.14829h2.04313c0.80737,0 1.30167,0.34601 1.74655,1.20281l0.16477,0.34601h0.44487l-0.19772,-1.74655c-0.03295,-0.24715 -0.06591,-0.29658 -0.28011,-0.29658h-6.77199v0.41192c0.87327,0.06591 1.15338,0.18125 1.15338,0.59317v8.13956c0,0.41192 -0.28011,0.49431 -1.15338,0.57669v0.49431c2.4221,-0.03295 4.58056,-0.03295 7.05209,0c0.06591,-0.84032 0.19772,-1.64769 0.47783,-2.53743z"
					data-paper-data='{"glyphName":"Е","glyphIndex":2,"lastGlyphOfWord":true,"word":1}'
				></path>
				<path
					d="M238.23794,272.10492v-0.41192h-8.93045v0.41192c0.87327,0.09886 1.18633,0.19772 1.18633,0.60964v6.27768c0,1.54882 -0.59317,2.488 -1.94427,2.488v2.66925h0.51078c0.03295,-1.00509 0.11534,-2.22437 2.15847,-2.22437h4.36637c2.04313,0 2.10904,1.21929 2.14199,2.22437h0.51078v-2.66925c-0.8568,-0.08238 -1.16986,-0.18125 -1.16986,-0.59317v-8.17252c0,-0.41192 0.31306,-0.51078 1.16986,-0.60964zM230.52677,281.48025c0.65907,-0.49431 0.84032,-1.46644 0.84032,-3.21299v-5.5527c0,-0.41192 0.31306,-0.60964 1.16986,-0.60964h1.7795c0.87327,0 1.18633,0.19772 1.18633,0.60964v8.17252c0,0.41192 -0.31306,0.59317 -1.18633,0.59317z"
					data-paper-data='{"glyphName":"Д","glyphIndex":3,"firstGlyphOfWord":true,"word":2}'
				></path>
				<path
					d="M253.34799,272.10492v-0.41192h-3.92149h-5.56918v0.41192c0.87327,0.09886 1.18633,0.19772 1.18633,0.60964v6.44245c0,1.54882 -0.59317,2.488 -1.94427,2.488v0.44487c2.32324,0 3.19651,-0.79089 3.19651,-4.18512v-5.19021c0,-0.41192 0.31306,-0.60964 1.18633,-0.60964h1.94427c0.87327,0 1.18633,0.19772 1.18633,0.60964v8.17252c0,0.41192 -0.31306,0.52726 -1.18633,0.60964v0.4284c1.28519,-0.04943 2.6363,-0.04943 3.92149,0v-0.4284c-0.87327,-0.08238 -1.18633,-0.19772 -1.18633,-0.60964v-8.17252c0,-0.41192 0.31306,-0.51078 1.18633,-0.60964z"
					data-paper-data='{"glyphName":"Л","glyphIndex":4,"word":2}'
				></path>
				<path
					d="M265.94895,280.90356v-7.87593c0,-0.47783 0.23068,-0.82384 1.12043,-0.9227v-0.41192c-1.43349,0.06591 -2.93288,0 -3.97092,0c-3.32832,0 -4.08626,1.40053 -4.08626,2.80106c0,1.16986 0.84032,2.38914 3.24594,2.99879l-1.48292,2.05961c-0.88975,1.23576 -1.87836,2.04313 -2.50448,2.07608l0.28011,0.4284c1.3511,0 2.37267,-0.59317 3.559,-2.10904l1.68064,-2.17494c0.04943,0 0.09886,0.01648 0.14829,0.01648l0.46135,0.04943v3.06469c0,0.41192 -0.28011,0.52726 -1.15338,0.59317v0.4284c1.28519,-0.04943 2.57039,-0.04943 3.85558,0v-0.4284c-0.87327,-0.06591 -1.15338,-0.18125 -1.15338,-0.59317zM264.40012,277.34456l-0.49431,-0.06591c-2.55391,-0.34601 -3.27889,-1.44996 -3.27889,-2.8505c0,-1.20281 0.69203,-2.24085 2.29028,-2.24085h1.48292z"
					data-paper-data='{"glyphName":"Я","glyphIndex":5,"lastGlyphOfWord":true,"word":2}'
				></path>
				<path
					d="M289.46088,272.10492v-0.41192h-3.92149h-5.86576v0.41192c0.87327,0.09886 1.18633,0.19772 1.18633,0.60964v8.17252c0,0.41192 -0.31306,0.52726 -1.18633,0.60964v0.4284c1.28519,-0.04943 2.6363,-0.04943 3.92149,0v-0.4284c-0.87327,-0.08238 -1.18633,-0.19772 -1.18633,-0.60964v-8.17252c0,-0.41192 0.31306,-0.60964 1.18633,-0.60964h1.94427c0.87327,0 1.18633,0.19772 1.18633,0.60964v8.17252c0,0.41192 -0.31306,0.52726 -1.18633,0.60964v0.4284c1.28519,-0.04943 2.6363,-0.04943 3.92149,0v-0.4284c-0.87327,-0.08238 -1.18633,-0.19772 -1.18633,-0.60964v-8.17252c0,-0.41192 0.31306,-0.51078 1.18633,-0.60964z"
					data-paper-data='{"glyphName":"П","glyphIndex":6,"firstGlyphOfWord":true,"word":3}'
				></path>
				<path
					d="M299.10253,271.42937c-2.73516,0 -4.56409,2.30676 -4.56409,5.32202c0,3.04822 1.91131,5.38793 4.64647,5.38793c2.73516,0 4.56409,-2.32324 4.56409,-5.3385c0,-3.04822 -1.91131,-5.37145 -4.64647,-5.37145zM299.36616,281.64501c-1.79598,0 -3.14708,-2.24085 -3.14708,-5.35498c0,-3.32832 1.3511,-4.38284 2.61982,-4.38284c1.87836,0 3.22946,2.24085 3.22946,5.37145c0,3.32832 -1.3511,4.36637 -2.7022,4.36637z"
					data-paper-data='{"glyphName":"О","glyphIndex":7,"word":3}'
				></path>
				<path
					d="M311.95788,275.86164l-0.44487,-0.01648v-3.67434h2.38914c0.80737,0 1.30167,0.36249 1.74655,1.21929l0.16477,0.34601h0.44487l-0.19772,-1.74655c-0.03295,-0.24715 -0.06591,-0.29658 -0.28011,-0.29658h-7.00266v0.41192c0.87327,0.09886 1.18633,0.19772 1.18633,0.60964v8.17252c0,0.41192 -0.31306,0.52726 -1.18633,0.60964v0.4284c1.28519,-0.04943 2.6363,-0.04943 3.92149,0c3.44366,0 4.2675,-1.49939 4.2675,-2.9164c0,-1.46644 -1.28519,-2.94936 -5.00896,-3.14708zM312.97945,281.49672h-0.29658c-0.8568,-0.08238 -1.16986,-0.19772 -1.16986,-0.60964v-4.54761l0.49431,0.01648c2.55391,0.13181 3.3448,1.28519 3.3448,2.71868c0,1.21929 -0.75794,2.4221 -2.37267,2.4221z"
					data-paper-data='{"glyphName":"Б","glyphIndex":8,"word":3}'
				></path>
				<path
					d="M328.66442,279.37121l-0.52726,1.05452c-0.32954,0.67555 -0.84032,0.97213 -1.81245,0.97213h-1.86188c-0.08238,0 -0.14829,-0.04943 -0.14829,-0.13181v-4.30046h2.15847c0.82384,0 0.97213,0.4284 1.12043,1.08747h0.41192c-0.08238,-0.88975 -0.08238,-1.7795 0,-2.66925h-0.41192c-0.14829,0.6426 -0.29658,1.08747 -1.12043,1.08747h-2.15847v-4.13569c0,-0.08238 0.06591,-0.14829 0.14829,-0.14829h2.04313c0.80737,0 1.30167,0.34601 1.74655,1.20281l0.16477,0.34601h0.44487l-0.19772,-1.74655c-0.03295,-0.24715 -0.06591,-0.29658 -0.28011,-0.29658h-6.77199v0.41192c0.87327,0.06591 1.15338,0.18125 1.15338,0.59317v8.13956c0,0.41192 -0.28011,0.49431 -1.15338,0.57669v0.49431c2.4221,-0.03295 4.58056,-0.03295 7.05209,0c0.06591,-0.84032 0.19772,-1.64769 0.47783,-2.53743z"
					data-paper-data='{"glyphName":"Е","glyphIndex":9,"word":3}'
				></path>
				<path
					d="M343.69663,272.10492v-0.41192h-8.93045v0.41192c0.87327,0.09886 1.18633,0.19772 1.18633,0.60964v6.27768c0,1.54882 -0.59317,2.488 -1.94427,2.488v2.66925h0.51078c0.03295,-1.00509 0.11534,-2.22437 2.15847,-2.22437h4.36637c2.04313,0 2.10904,1.21929 2.14199,2.22437h0.51078v-2.66925c-0.8568,-0.08238 -1.16986,-0.18125 -1.16986,-0.59317v-8.17252c0,-0.41192 0.31306,-0.51078 1.16986,-0.60964zM335.98546,281.48025c0.65907,-0.49431 0.84032,-1.46644 0.84032,-3.21299v-5.5527c0,-0.41192 0.31306,-0.60964 1.16986,-0.60964h1.7795c0.87327,0 1.18633,0.19772 1.18633,0.60964v8.17252c0,0.41192 -0.31306,0.59317 -1.18633,0.59317z"
					data-paper-data='{"glyphName":"Д","glyphIndex":10,"word":3}'
				></path>
				<path
					d="M352.07667,275.86164l-0.44487,-0.01648v-3.1306c0,-0.41192 0.31306,-0.51078 1.18633,-0.60964v-0.41192c-1.28519,0.04943 -2.6363,0.04943 -3.92149,0v0.41192c0.87327,0.09886 1.18633,0.19772 1.18633,0.60964v8.17252c0,0.41192 -0.31306,0.52726 -1.18633,0.60964v0.4284c1.28519,-0.04943 2.6363,-0.04943 3.92149,0c3.44366,0 4.2675,-1.49939 4.2675,-2.9164c0,-1.46644 -1.28519,-2.94936 -5.00896,-3.14708zM360.46338,280.88708v-8.17252c0,-0.41192 0.31306,-0.51078 1.18633,-0.60964v-0.41192c-1.28519,0.04943 -2.6363,0.04943 -3.92149,0v0.41192c0.87327,0.09886 1.18633,0.19772 1.18633,0.60964v8.17252c0,0.41192 -0.31306,0.52726 -1.18633,0.60964v0.4284c1.28519,-0.04943 2.6363,-0.04943 3.92149,0v-0.4284c-0.87327,-0.08238 -1.18633,-0.19772 -1.18633,-0.60964zM353.09823,281.49672c-1.08747,0 -1.46644,-0.11534 -1.46644,-0.60964v-4.54761l0.49431,0.01648c2.55391,0.13181 3.3448,1.28519 3.3448,2.71868c0,1.21929 -0.75794,2.4221 -2.37267,2.4221z"
					data-paper-data='{"glyphName":"Ы","glyphIndex":11,"word":3}'
				></path>
				<path
					d="M367.8411,278.34964h0.4284c0.04943,-2.47153 0.7085,-4.00387 0.7085,-5.79985c0,-0.60964 -0.29658,-1.12043 -0.9227,-1.12043c-0.62612,0 -0.93918,0.51078 -0.93918,1.12043c0,1.79598 0.67555,3.32832 0.72498,5.79985zM367.93996,282.08989c0.49431,0 0.90623,-0.41192 0.90623,-0.90623c0,-0.49431 -0.41192,-0.90623 -0.90623,-0.90623c-0.47783,0 -0.88975,0.41192 -0.88975,0.90623c0,0.49431 0.41192,0.90623 0.88975,0.90623z"
					data-paper-data='{"glyphName":"!","glyphIndex":12,"lastGlyphOfWord":true,"word":3}'
				></path>
			</g>
			<g data-paper-data='{"isPrimaryText":true}'>
				<path
					d="M65,244.7264M105.02143,199.83334v11.96326h-6.90663l-0.37,-5.0258h-8.26328v31.63481l4.80997,0.92499v5.3958h-18.62322v-5.3958l4.80997,-0.92499v-31.63481h-8.23245l-0.37,5.0258h-6.87579v-11.96326z"
					data-paper-data='{"glyphName":"Т","glyphIndex":0,"firstGlyphOfWord":true,"word":1}'
					fill="#651d32"
					fill-rule="nonzero"
				></path>
				<path
					d="M152.19615,255.76467h-8.17078v-11.03827h-27.534v11.03827h-8.29412l-0.67833,-17.94489h3.45331c1.60332,-1.37721 3.00109,-3.55095 4.19331,-6.52121c1.19222,-2.97026 1.8911,-7.33315 2.09665,-13.08867l0.8325,-12.08659l-4.37831,-0.86333v-5.42663h38.7881v5.42663l-4.77914,0.92499v31.63481h5.3033zM126.2963,218.2099c-0.185,4.54275 -0.72458,8.40203 -1.61874,11.57785c-0.89416,3.17581 -2.06068,5.85316 -3.49956,8.03204h17.54406v-31.04898h-11.68576z"
					data-paper-data='{"glyphName":"Д","glyphIndex":1,"lastGlyphOfWord":true,"word":1}'
					fill="#651d32"
					fill-rule="nonzero"
				></path>
				<path
					d="M267.22546,244.7264M267.22546,242.01309l3.29915,-0.24667l15.94074,-41.93308h3.48415l15.78657,41.93308l3.36081,0.24667v2.71332h-11.0691v-2.71332l3.91581,-0.30833l-3.69998,-10.05161h-20.16488l-3.73081,10.05161l3.91581,0.30833v2.71332h-11.03827zM279.31205,228.354h17.72906l-8.72578,-23.74153h-0.185z"
					data-paper-data='{"glyphName":"А","glyphIndex":2,"firstGlyphOfWord":true,"fontStyleEffect":true,"word":2}'
					fill="#651d32"
					fill-rule="nonzero"
				></path>
				<path
					d="M314.67768,244.7264M333.60923,199.83334c4.70719,0 8.35064,1.19735 10.93035,3.59206c2.57971,2.39471 3.86956,5.56538 3.86956,9.51203c0,3.98775 -1.28985,7.17385 -3.86956,9.55828c-2.57971,2.38443 -6.22316,3.57665 -10.93035,3.57665h-10.23661v15.53991l5.0258,0.40083v2.71332h-13.72075v-2.71332l5.0258,-0.40083v-38.63394l-5.0258,-0.40083v-2.74415h5.0258zM323.37263,222.92737h10.23661c3.69998,0 6.4801,-0.94041 8.34037,-2.82123c1.86027,-1.88082 2.7904,-4.24984 2.7904,-7.10704c0,-2.87776 -0.92499,-5.26733 -2.77498,-7.16871c-1.84999,-1.90138 -4.63525,-2.85207 -8.35578,-2.85207h-10.23661z"
					data-paper-data='{"glyphName":"Р","glyphIndex":3,"fontStyleEffect":true,"word":2}'
					fill="#651d32"
					fill-rule="nonzero"
				></path>
				<path
					d="M354.43702,244.7264M381.53936,222.98903h-18.40739v18.62322h21.21321l0.2775,-6.72163h3.26831v9.83577h-33.45397v-2.71332l5.0258,-0.40083v-38.63394l-5.0258,-0.40083v-2.74415h5.0258h28.274v9.86661h-3.26831l-0.2775,-6.72163h-21.05904v16.86573h18.40739z"
					data-paper-data='{"glyphName":"Е","glyphIndex":4,"fontStyleEffect":true,"word":2}'
					fill="#651d32"
					fill-rule="nonzero"
				></path>
				<path
					d="M395.21387,244.7264M395.21387,202.57749v-2.74415h13.72075v2.74415l-5.0258,0.40083v17.94489h25.52985v-17.94489l-5.0258,-0.40083v-2.74415h5.0258h3.66914h5.0258v2.74415l-5.0258,0.40083v38.63394l5.0258,0.40083v2.71332h-13.72075v-2.71332l5.0258,-0.40083v-17.54406h-25.52985v17.54406l5.0258,0.40083v2.71332h-13.72075v-2.71332l5.0258,-0.40083v-38.63394z"
					data-paper-data='{"glyphName":"Н","glyphIndex":5,"fontStyleEffect":true,"word":2}'
					fill="#651d32"
					fill-rule="nonzero"
				></path>
				<path
					d="M443.12858,244.7264M443.12858,242.01309l3.29915,-0.24667l15.94074,-41.93308h3.48415l15.78657,41.93308l3.36081,0.24667v2.71332h-11.0691v-2.71332l3.91581,-0.30833l-3.69998,-10.05161h-20.16488l-3.73081,10.05161l3.91581,0.30833v2.71332h-11.03827zM455.21518,228.354h17.72906l-8.72578,-23.74153h-0.185z"
					data-paper-data='{"glyphName":"А","glyphIndex":6,"lastGlyphOfWord":true,"fontStyleEffect":true,"word":2}'
					fill="#651d32"
					fill-rule="nonzero"
				></path>
				<g
					data-paper-data='{"isIcon":"true","iconType":"icon","rawIconId":"1153990","selectedEffects":{"container":"","transformation":"","pattern":""},"fillRule":"evenodd","bounds":{"x":162.52525467613816,"y":185.8505042336145,"width":95.20359381649081,"height":72.85873436601784},"iconStyle":"icon-in-text"}'
					fill="#651d32"
					fill-rule="evenodd"
				>
					<path
						d="M183.03403,187.45056c0,-0.88403 0.71603,-1.60006 1.60006,-1.60006h22.88087c0.88003,0 1.60006,0.71603 1.60006,1.60006c0,0.88403 -0.71603,1.60006 -1.60006,1.60006h-22.88087c-0.88003,0 -1.60006,-0.71603 -1.60006,-1.60006zM236.83606,200.80707c0,-5.76422 4.68818,-10.44839 10.4444,-10.44839c5.76422,0 10.44839,4.68818 10.44839,10.44839c0,5.76022 -4.68818,10.44839 -10.44839,10.44839c-5.75622,0 -10.4444,-4.68818 -10.4444,-10.44839zM255.89278,221.74786c-5.15219,0.76403 -11.58444,0.94004 -13.03249,-0.112c-2.25208,-1.64406 -4.22416,-5.80022 -6.30024,-10.19639c-3.91215,-8.25631 -8.76833,-18.5327 -18.96071,-18.5327c-6.13223,0 -21.3008,-0.66403 -21.45281,-0.66802c-0.04712,-0.00472 -0.09008,0.00444 -0.13297,0.0136c-0.02992,0.00636 -0.0598,0.01276 -0.09104,0.0144c-0.092,0.008 -0.17601,0.012 -0.26801,0.036c-0.15201,0.04 -0.28401,0.108 -0.41602,0.19201c-0.032,0.02 -0.068,0.024 -0.1,0.044c-0.016,0.012 -0.02,0.028 -0.036,0.036c-0.108,0.088 -0.19201,0.19201 -0.27601,0.30401c-0.052,0.064 -0.10401,0.124 -0.144,0.19601c-0.048,0.088 -0.072,0.184 -0.10401,0.28401c-0.032,0.10401 -0.068,0.20801 -0.08,0.32001c0,0.028 -0.02,0.056 -0.02,0.088c-0.00244,0.0442 0.00716,0.08392 0.0168,0.12373c0.00604,0.025 0.01212,0.05004 0.0152,0.07628c0.008,0.112 0.016,0.21601 0.048,0.32401c0.032,0.108 0.08,0.20001 0.136,0.29601c0.032,0.06 0.044,0.12801 0.084,0.18801c5.62021,7.78029 11.17242,11.04042 17.48066,10.21638c4.15216,-0.52002 5.2802,0.67202 6.32824,2.30809c1.10684,1.74407 0.56882,2.40601 0.25641,2.79083l-0.0044,0.00528l-8.38832,7.86029c-2.6881,2.28409 -4.14816,4.87218 -4.34416,7.68829c-0.22401,3.18012 1.18404,6.50425 4.18416,9.87637c1.78807,2.01208 6.37624,6.38824 8.94434,8.81233l-13.92453,5.84022c-0.81203,0.34401 -1.19605,1.28005 -0.85603,2.09608c0.25601,0.60802 0.85203,0.98004 1.47606,0.98004c0.20801,0 0.41602,-0.044 0.62002,-0.124l16.19661,-6.79626c0.50002,-0.21201 0.86003,-0.66002 0.95204,-1.19605c0.096,-0.53602 -0.084,-1.08404 -0.48402,-1.45205c-0.08,-0.076 -8.14031,-7.59629 -10.5364,-10.28439c-2.40409,-2.7041 -3.54413,-5.2402 -3.38413,-7.52829c0.132,-1.92407 1.22005,-3.76414 3.28013,-5.52421l8.58032,-8.05231c1.68006,-2.01208 1.72007,-4.20816 0.12,-6.71225c-1.52006,-2.38809 -3.72414,-4.50017 -9.42835,-3.76014c-2.81611,0.34001 -6.99626,-0.012 -12.35646,-6.23624c4.90818,0.19601 13.73652,0.52802 18.10468,0.52802c8.16431,0 12.36447,8.87234 16.06861,16.70063c2.36009,4.98419 4.39616,9.28835 7.31227,11.41643c2.24008,1.63206 7.7923,1.48005 11.65644,1.13204c-2.05608,2.44409 -5.3802,5.64421 -9.04034,6.13223c-2.24809,0.32001 -4.32416,-0.47202 -6.35224,-2.36009c-0.90004,-0.83603 -2.42409,-3.26412 -3.54413,-5.03619c-1.45205,-2.30809 -1.90007,-2.98811 -2.48809,-3.34013c-0.38802,-0.23601 -1.31205,-0.79203 -4.36816,1.08404c-1.41605,0.87203 -6.01623,4.06815 -5.69221,8.57633c0.24801,3.40813 3.93615,7.51629 7.70429,11.43643l0.77203,0.80803c1.22005,1.29205 1.77607,2.33209 1.66406,3.09212c-0.11601,0.75603 -0.98004,1.38805 -1.68806,1.78407c-5.06019,2.84411 -22.28484,7.9843 -22.46085,8.0363c-0.84803,0.25201 -1.32805,1.14404 -1.08004,1.99207c0.20801,0.69602 0.84403,1.14404 1.53606,1.14404c0.15201,0 0.30401,-0.024 0.45602,-0.068c0.72403,-0.21601 17.74867,-5.2962 23.11687,-8.31631c1.92407,-1.08404 3.03212,-2.46009 3.28013,-4.09216c0.36801,-2.41209 -1.25205,-4.44817 -2.50009,-5.76822l-0.79203,-0.83203c-2.15608,-2.24409 -6.63625,-6.91226 -6.81626,-9.44436c-0.21201,-2.92811 3.74814,-5.54821 5.4162,-6.29224c0.34801,0.50802 0.81603,1.25605 1.22805,1.90407c1.34405,2.13608 2.86811,4.55617 4.07215,5.67621c2.7401,2.5481 5.75622,3.62414 8.96034,3.18812c7.51629,-1.00804 13.2245,-10.09638 13.46051,-10.4844c0.32801,-0.53202 0.32001,-1.20404 -0.024,-1.72407c-0.32801,-0.52402 -0.94004,-0.80003 -1.56006,-0.70802zM188.60624,195.02685c0,0.88403 -0.71603,1.60006 -1.60006,1.60006h-22.88087c-0.88003,0 -1.60006,-0.71603 -1.60006,-1.60006c0,-0.88403 0.71603,-1.60006 1.60006,-1.60006h22.88087c0.88003,0 1.60006,0.71603 1.60006,1.60006zM240.03618,200.80707c0,3.99615 3.24812,7.24427 7.24427,7.24427c3.99615,0 7.24827,-3.24812 7.24827,-7.24427c0,-3.99615 -3.25212,-7.24827 -7.24827,-7.24827c-3.99615,0 -7.24427,3.25212 -7.24427,7.24827zM174.94173,205.95526c-0.88003,0 -1.60006,-0.71603 -1.60006,-1.60006c0,-0.88003 0.71603,-1.60006 1.60006,-1.60006h22.88087c0.88003,0 1.60006,0.71603 1.60006,1.60006c0,0.88403 -0.71603,1.60006 -1.60006,1.60006zM188.34623,212.95953c0.88003,0 1.60006,0.71603 1.60006,1.60006c0,0.88403 -0.72003,1.60006 -1.60006,1.60006h-22.88087c-0.88003,0 -1.60006,-0.72003 -1.60006,-1.60006c0,-0.88003 0.71603,-1.60006 1.60006,-1.60006zM199.42265,222.7399c0,0.88003 -0.71603,1.60006 -1.60006,1.60006h-22.88087c-0.88003,0 -1.60006,-0.72003 -1.60006,-1.60006c0,-0.88003 0.71603,-1.60006 1.60006,-1.60006h22.88087c0.88003,0 1.60006,0.72003 1.60006,1.60006zM203.4668,231.00021l-26.91301,21.3288c-0.29201,0.23601 -0.64402,0.34801 -0.99604,0.34801c-0.47202,0 -0.93604,-0.20801 -1.25205,-0.60802c-0.55202,-0.69203 -0.43602,-1.69607 0.26001,-2.24809l26.91301,-21.3288c0.68803,-0.55602 1.69607,-0.43201 2.24809,0.26001c0.55202,0.69203 0.43602,1.69607 -0.26001,2.24809zM207.00294,238.12848c0.77603,-0.40002 1.74807,-0.1 2.15608,0.68803c0.40402,0.78403 0.096,1.74807 -0.68803,2.15608l-30.83316,15.9526c-0.23601,0.12 -0.48402,0.18001 -0.73603,0.18001c-0.57602,0 -1.13604,-0.31601 -1.42005,-0.86803c-0.40402,-0.78403 -0.096,-1.74807 0.68803,-2.15608z"
						data-paper-data='{"isPathIcon":true}'
					></path>
				</g>
			</g>
		</g>
	</g>
</svg>